HIERARCHY
ROOT Hips
{
	OFFSET 0.000000 0.000000 0.000000
	CHANNELS 6 Xposition Yposition Zposition Zrotation Yrotation Xrotation 
	JOINT LHipJoint
	{
		OFFSET 0.000000 0.000000 0.000000
		CHANNELS 3 Zrotation Yrotation Xrotation
		JOINT LeftUpLeg
		{
			OFFSET 1.363060 -1.794630 0.839290
			CHANNELS 3 Zrotation Yrotation Xrotation
			JOINT LeftLeg
			{
				OFFSET 2.448110 -6.726130 0.000000
				CHANNELS 3 Zrotation Yrotation Xrotation
				JOINT LeftFoot
				{
					OFFSET 2.562200 -7.039590 0.000000
					CHANNELS 3 Zrotation Yrotation Xrotation
					JOINT LeftToeBase
					{
						OFFSET 0.157640 -0.433110 2.322550
						CHANNELS 3 Zrotation Yrotation Xrotation
						End Site
						{
							OFFSET 0.000000 0.000000 0.000000
						}
					}
				}
			}
		}
	}
	JOINT RHipJoint
	{
		OFFSET 0.000000 0.000000 0.000000
		CHANNELS 3 Zrotation Yrotation Xrotation
		JOINT RightUpLeg
		{
			OFFSET -1.305520 -1.794630 0.839290
			CHANNELS 3 Zrotation Yrotation Xrotation
			JOINT RightLeg
			{
				OFFSET -2.542530 -6.985550 0.000000
				CHANNELS 3 Zrotation Yrotation Xrotation
				JOINT RightFoot
				{
					OFFSET -2.568260 -7.056230 0.000000
					CHANNELS 3 Zrotation Yrotation Xrotation
					JOINT RightToeBase
					{
						OFFSET -0.164730 -0.452590 2.363150
						CHANNELS 3 Zrotation Yrotation Xrotation
						End Site
						{
							OFFSET 0.000000 0.000000 0.000000
						}
					}
				}
			}
		}
	}
	JOINT LowerBack
	{
		OFFSET 0.000000 0.000000 0.000000
		CHANNELS 3 Zrotation Yrotation Xrotation
		JOINT Spine
		{
			OFFSET 0.028270 2.035590 -0.193380
			CHANNELS 3 Zrotation Yrotation Xrotation
			JOINT Spine1
			{
				OFFSET 0.056720 2.048850 -0.042750
				CHANNELS 3 Zrotation Yrotation Xrotation
				JOINT Neck
				{
					OFFSET 0.000000 0.000000 0.000000
					CHANNELS 3 Zrotation Yrotation Xrotation
					JOINT Neck1
					{
						OFFSET -0.054170 1.746240 0.172020
						CHANNELS 3 Zrotation Yrotation Xrotation
						JOINT Head
						{
							OFFSET 0.104070 1.761360 -0.123970
							CHANNELS 3 Zrotation Yrotation Xrotation
							End Site
							{
								OFFSET 0.000000 0.000000 0.000000
							}
						}
					}
				}
				JOINT LeftShoulder
				{
					OFFSET 0.000000 0.000000 0.000000
					CHANNELS 3 Zrotation Yrotation Xrotation
					JOINT LeftArm
					{
						OFFSET 3.362410 1.200890 -0.311210
						CHANNELS 3 Zrotation Yrotation Xrotation
						JOINT LeftForeArm
						{
							OFFSET 4.983000 -0.000000 -0.000000
							CHANNELS 3 Zrotation Yrotation Xrotation
							JOINT LeftHand
							{
								OFFSET 3.483560 -0.000000 -0.000000
								CHANNELS 3 Zrotation Yrotation Xrotation
								JOINT LeftFingerBase
								{
									OFFSET 0.000000 0.000000 0.000000
									CHANNELS 3 Zrotation Yrotation Xrotation
									JOINT LeftHandIndex1
									{
										OFFSET 0.715260 -0.000000 -0.000000
										CHANNELS 3 Zrotation Yrotation Xrotation
										End Site
										{
											OFFSET 0.000000 0.000000 0.000000
										}
									}
								}
								JOINT LThumb
								{
									OFFSET 0.000000 0.000000 0.000000
									CHANNELS 3 Zrotation Yrotation Xrotation
									End Site
									{
										OFFSET 0.000000 0.000000 0.000000
									}
								}
							}
						}
					}
				}
				JOINT RightShoulder
				{
					OFFSET 0.000000 0.000000 0.000000
					CHANNELS 3 Zrotation Yrotation Xrotation
					JOINT RightArm
					{
						OFFSET -3.136600 1.374050 -0.404650
						CHANNELS 3 Zrotation Yrotation Xrotation
						JOINT RightForeArm
						{
							OFFSET -5.241900 -0.000000 -0.000000
							CHANNELS 3 Zrotation Yrotation Xrotation
							JOINT RightHand
							{
								OFFSET -3.444170 -0.000000 -0.000000
								CHANNELS 3 Zrotation Yrotation Xrotation
								JOINT RightFingerBase
								{
									OFFSET 0.000000 0.000000 0.000000
									CHANNELS 3 Zrotation Yrotation Xrotation
									JOINT RightHandIndex1
									{
										OFFSET -0.622530 -0.000000 -0.000000
										CHANNELS 3 Zrotation Yrotation Xrotation
										End Site
										{
											OFFSET 0.000000 0.000000 0.000000
										}
									}
								}
								JOINT RThumb
								{
									OFFSET 0.000000 0.000000 0.000000
									CHANNELS 3 Zrotation Yrotation Xrotation
									End Site
									{
										OFFSET 0.000000 0.000000 0.000000
									}
								}
							}
						}
					}
				}
			}
		}
	}
}
MOTION
Frames: 8
Frame Time: 0.008333
-5.090748 16.727944 -1.415300 11.885586 74.040835 32.306454 -8.311484 -0.856773 0.711951 -10.011878 -6.201869 -40.721532 -2.870972 -0.000996 10.584290 -0.566665 -3.737742 12.023098 -0.750900 -0.000000 -31.397300 10.875793 -0.870249 -2.767187 3.676946 -0.793317 -8.728762 2.897630 -1.848327 29.218838 1.342274 15.920729 -14.193959 -1.840400 0.000000 -42.794800 -4.210277 1.764478 4.374299 -2.086253 2.023609 -2.001302 -7.405073 1.940749 1.185826 9.307900 6.944078 4.510115 -5.004761 -0.437721 2.707667 0.000000 0.000000 0.000000 -9.476548 6.498522 0.641099 -63.962872 1.008672 15.127323 -2.855143 -32.707392 0.002251 2.433352 0.033477 0.001912 -0.057548 -0.039124 -0.000000 0.000000 0.000000 0.000000 0.000000 0.000000 0.000000 20.618569 6.455281 -1.196394 72.963121 24.598213 1.016558 3.269198 17.116377 0.012228 1.252609 10.539899 0.112720 0.049370 -0.110305 -0.000000 0.000000 0.000000 0.000000 0.000000 0.000000 0.000000 
-4.983544 16.742936 -1.394216 12.947316 72.890170 33.338496 -8.146429 -0.717376 0.494446 -11.237688 -5.298477 -40.546228 -3.041920 0.004424 11.111492 -0.576395 -3.608589 11.374168 -0.655200 -0.000000 -30.697100 11.277592 -0.856612 -2.697160 2.289821 -1.219106 -10.032037 2.689486 -2.136248 31.465066 1.420985 16.522269 -13.010234 -1.707500 -0.000000 -47.015600 -5.071243 1.710361 4.425981 -2.274582 2.006164 -2.010699 -7.474538 1.919434 1.151926 9.274350 7.263617 4.670207 -5.084079 -0.442564 2.733265 0.000000 0.000000 0.000000 -9.531058 6.080611 0.694839 -63.392609 0.534510 15.646025 -2.912824 -31.982443 0.002151 2.298636 0.071885 0.002601 -0.056264 -0.040417 -0.000000 0.000000 0.000000 0.000000 0.000000 0.000000 0.000000 20.951781 6.590344 -1.150436 73.146927 24.112805 -1.445434 3.244180 15.144959 0.011848 0.888808 10.621383 0.079204 0.051041 -0.107948 -0.000000 0.000000 0.000000 0.000000 0.000000 0.000000 0.000000 
-4.882529 16.764944 -1.375149 13.668692 71.684040 34.039291 -7.975568 -0.585679 0.261824 -12.375145 -4.370421 -40.225494 -3.218915 -0.016099 11.378909 -0.585692 -3.497659 10.620950 -0.563500 0.000000 -30.098800 11.659592 -0.830848 -2.611070 0.976953 -1.464341 -11.415557 2.447624 -2.428715 33.775578 1.479145 16.994611 -11.563169 -1.451701 0.000000 -50.920000 -5.867763 1.678514 4.500597 -2.447712 2.008104 -2.015327 -7.523105 1.917276 1.108346 9.150154 7.607404 4.845785 -5.152872 -0.446880 2.762460 0.000000 0.000000 0.000000 -9.592230 5.583649 0.759140 -62.860940 -0.012764 16.128151 -2.975298 -31.092104 0.001956 2.119911 0.142612 0.003789 -0.054888 -0.040991 -0.000000 0.000000 0.000000 0.000000 0.000000 0.000000 0.000000 21.146058 6.760058 -1.098328 73.307644 23.632973 -3.912053 3.193433 13.277825 0.011313 0.302492 10.693351 0.023987 0.053882 -0.106529 -0.000000 0.000000 0.000000 0.000000 0.000000 0.000000 0.000000 
-4.787101 16.792906 -1.358997 14.089133 70.423974 34.447872 -7.805506 -0.464061 0.022840 -13.399658 -3.445013 -39.744056 -3.395939 -0.065083 11.344607 -0.591621 -3.384480 9.858995 -0.475400 0.000000 -29.607900 12.016880 -0.792309 -2.511711 -0.253056 -1.535022 -12.864285 2.171617 -2.720019 36.120706 1.514305 17.352681 -9.831735 -1.062500 -0.000000 -54.750600 -6.592389 1.666544 4.594091 -2.604037 2.026717 -2.013676 -7.550463 1.931983 1.063197 8.930337 7.962923 5.019880 -5.210039 -0.450488 2.790948 0.000000 0.000000 0.000000 -9.650278 5.066086 0.832085 -62.387857 -0.681186 16.597425 -3.044623 -30.015902 0.001656 1.897712 0.254201 0.005277 -0.053785 -0.040504 0.000000 0.000000 0.000000 0.000000 0.000000 0.000000 0.000000 21.192792 6.959956 -1.043995 73.452691 23.139633 -6.224309 3.119822 11.594167 0.010625 -0.497861 10.736605 -0.052329 0.057966 -0.105849 -0.000000 0.000000 0.000000 0.000000 0.000000 0.000000 0.000000 
-4.696051 16.825619 -1.347711 14.148193 69.127173 34.510294 -7.657835 -0.358846 -0.221913 -14.275350 -2.477923 -39.149032 -3.565036 -0.134872 11.054789 -0.597655 -3.318431 9.145468 -0.409399 0.000000 -29.192600 12.327554 -0.747587 -2.393245 -1.331889 -1.397655 -14.350538 1.868887 -2.998263 38.465760 1.521513 17.589067 -7.872387 -0.551800 -0.000000 -57.929400 -7.192845 1.674955 4.697554 -2.732503 2.060474 -2.008494 -7.557849 1.961981 1.012802 8.604047 8.314729 5.187565 -5.255385 -0.453421 2.818654 0.000000 0.000000 0.000000 -9.715972 4.509722 0.911566 -61.988183 -1.408818 17.008757 -3.116483 -28.800255 0.001266 1.636601 0.410063 0.006866 -0.052895 -0.038943 0.000000 0.000000 0.000000 0.000000 0.000000 0.000000 0.000000 21.077392 7.177659 -0.984516 73.587138 22.618834 -8.213596 3.032935 10.132343 0.009841 -1.482583 10.744874 -0.146346 0.063468 -0.105789 -0.000000 0.000000 0.000000 0.000000 0.000000 0.000000 0.000000 
-4.608142 16.861635 -1.342008 13.897941 67.807047 34.278008 -7.541516 -0.271105 -0.466951 -14.996986 -1.469968 -38.461547 -3.720814 -0.221334 10.529448 -0.604000 -3.294896 8.543765 -0.365200 0.000000 -28.835500 12.586728 -0.698562 -2.257238 -2.246705 -1.074075 -15.855505 1.546238 -3.255329 40.781508 1.498860 17.714195 -5.719287 0.064899 0.000000 -60.511100 -7.655219 1.698090 4.804663 -2.829869 2.103343 -2.001328 -7.546273 2.001253 0.955819 8.171110 8.648890 5.343278 -5.288730 -0.455686 2.844874 0.000000 0.000000 0.000000 -9.786076 3.907355 0.996426 -61.670202 -2.148818 17.328691 -3.188589 -27.488104 0.000802 1.342650 0.614900 0.008157 -0.052246 -0.036307 0.000000 0.000000 0.000000 0.000000 0.000000 0.000000 0.000000 20.798370 7.399894 -0.918783 73.727757 22.074738 -9.829450 2.944718 8.882222 0.009046 -2.564793 10.717471 -0.249262 0.070180 -0.106236 -0.000000 0.000000 0.000000 0.000000 0.000000 0.000000 0.000000 
-4.522010 16.899388 -1.342123 13.402632 66.478776 33.815725 -7.460911 -0.200136 -0.707678 -15.571250 -0.427590 -37.705646 -3.859276 -0.319665 9.798738 -0.610556 -3.301386 8.098257 -0.339300 0.000000 -28.520000 12.793559 -0.645077 -2.107180 -2.996111 -0.596474 -17.360719 1.213854 -3.484465 43.043653 1.446298 17.736440 -3.441184 0.756200 -0.000000 -62.387100 -7.978071 1.725391 4.911953 -2.896108 2.144936 -1.989187 -7.520289 2.039954 0.906212 7.644602 8.945610 5.465240 -5.312638 -0.457205 2.863746 0.000000 0.000000 0.000000 -9.855769 3.342255 1.083177 -61.433165 -2.969256 17.598798 -3.262955 -26.067999 0.000296 1.030376 0.863849 0.008751 -0.052223 -0.032359 0.000000 0.000000 0.000000 0.000000 0.000000 0.000000 0.000000 20.380747 7.607122 -0.854313 73.875351 21.516856 -10.929946 2.864489 7.872152 0.008286 -3.677367 10.615030 -0.352077 0.078025 -0.106652 -0.000000 0.000000 0.000000 0.000000 0.000000 0.000000 0.000000 
-4.436289 16.937399 -1.348239 12.706992 65.165904 33.167229 -7.422475 -0.144604 -0.942283 -16.010833 0.663564 -36.925985 -3.978119 -0.421224 8.931026 -0.619528 -3.354133 7.818305 -0.335400 0.000000 -28.227701 12.944978 -0.589836 -1.945396 -3.566728 0.000834 -18.844722 0.883091 -3.679809 45.227746 1.365332 17.642064 -1.119837 1.480700 -0.000000 -63.550500 -8.149982 1.749586 5.015143 -2.928482 2.177687 -1.973667 -7.481895 2.070404 0.861612 7.034870 9.190545 5.553149 -5.328149 -0.458063 2.875880 0.000000 0.000000 0.000000 -9.926136 2.787896 1.170697 -61.270858 -3.806001 17.785421 -3.335640 -24.600415 -0.000224 0.715035 1.154205 0.008149 -0.052668 -0.027302 0.000000 0.000000 0.000000 0.000000 0.000000 0.000000 0.000000 19.839069 7.779136 -0.788548 74.031927 20.975158 -11.595663 2.804164 7.028322 0.007686 -4.697820 10.449832 -0.441891 0.086503 -0.106938 -0.000000 0.000000 0.000000 0.000000 0.000000 0.000000 0.000000 
